<svg id="Capa_1" enable-background="new 0 0 512 512" height="512" viewBox="0 0 512 512" width="512" xmlns="http://www.w3.org/2000/svg"><g><path d="m125.07 250.533c3.777-2.021 6.124-5.939 6.124-10.223v-9.416h6.6c17.682 0 32.067-14.385 32.067-32.067v-60.113c0-17.682-14.386-32.067-32.067-32.067h-105.727c-17.681-.001-32.067 14.385-32.067 32.066v60.113c0 17.682 14.386 32.067 32.067 32.067h64.488l15.063 17.687c3.24 3.715 9.247 4.203 13.452 1.953zm-28.422-34.639h-64.581c-9.411 0-17.067-7.656-17.067-17.067v-60.113c0-9.411 7.656-17.067 17.067-17.067h105.727c9.411 0 17.067 7.656 17.067 17.067v60.113c0 9.411-7.656 17.067-17.067 17.067h-10.005c-6.394 0-11.595 5.201-11.595 11.594v3.33l-9.294-10.913c-2.418-2.772-6.686-3.999-10.252-4.011zm413.8 221.707-31.36-132.39c-5.238-22.109-22.904-39.555-45.011-44.445l-72.641-16.04c-4.46-.984-7.696-5.041-7.696-9.646v-12.102c24.032-14.741 40.109-41.335 40.109-71.633v-5.141c14.526.647 27.268-10.552 27.268-25.571 0-14.82-12.573-26.333-27.268-25.479v-57.654c0-20.678-16.822-37.5-37.5-37.5h-91.968c-20.678 0-37.5 16.822-37.5 37.5v57.654c-14.654-.731-27.268 10.615-27.268 25.57 0 14.536 12.573 26.534 27.268 25.48v5.141c0 30.298 16.077 56.892 40.108 71.633v12.102c0 4.605-3.236 8.662-7.697 9.646l-72.644 16.041c-22.098 4.888-39.76 22.333-44.997 44.443l-31.37 132.39c-.758 3.023-1.552 6.046-1.552 9.279 0 12.238 7.847 22.86 19.531 26.434l41.795 12.75v8.436c0 9.649 7.309 17.5 16.292 17.5h248.034c8.983 0 16.292-7.851 16.292-17.5v-8.437l41.799-12.751c11.681-3.571 19.528-14.186 19.528-26.411 0-3.096-.882-6.287-1.552-9.299zm-116.598-327.447c6.342-.784 12.268 3.971 12.268 10.57 0 6.416-5.91 11.308-12.268 10.48zm-166.968 21.051c-6.379.799-12.268-3.976-12.268-10.571 0-6.471 5.967-11.269 12.268-10.479zm15 20.14v-41.453c12.957-.738 25.672-2.946 37.892-6.585 3.97-1.182 6.229-5.359 5.048-9.329-1.182-3.969-5.355-6.228-9.329-5.047-10.834 3.226-22.111 5.193-33.61 5.912v-57.343c0-12.407 10.094-22.5 22.5-22.5h91.968c12.406 0 22.5 10.093 22.5 22.5v54.429c-5.636-2.529-10.921-5.763-15.78-9.693-6.94-5.614-12.733-12.406-17.22-20.189-1.646-2.854-4.45-4.799-7.695-5.337-3.239-.538-6.515.396-8.985 2.562-7.185 6.295-14.985 11.875-23.184 16.586-3.592 2.063-4.83 6.648-2.767 10.239 2.063 3.592 6.648 4.83 10.239 2.767 7.678-4.412 15.036-9.511 21.93-15.194 5 7.675 11.123 14.464 18.249 20.229 7.606 6.152 16.067 10.918 25.213 14.208v43.239c0 37.974-30.722 68.869-68.484 68.869-37.763-.001-68.485-30.896-68.485-68.87zm107.839 104.339c-10.655 9.888-24.543 15.407-39.356 15.407s-28.701-5.519-39.356-15.407c6.665-4.537 10.981-12.202 10.981-20.603v-4.862c8.863 3.228 18.417 4.995 28.375 4.995s19.512-1.767 28.375-4.995v4.861c0 8.402 4.316 16.066 10.981 20.604zm-174.645 216.228-42.432-12.944c-5.248-1.605-8.913-6.576-8.913-12.088 0-8 7.677-14.212 15.443-12.289l30.883 7.437v6.03c0 8.183 2.911 15.699 7.752 21.567-.987.657-1.9 1.428-2.733 2.287zm260.599 22.588c0 1.556-.897 2.5-1.292 2.5h-248.034c-.395 0-1.292-.944-1.292-2.5v-10c0-1.556.897-2.5 1.292-2.5h248.034c.395 0 1.292.944 1.292 2.5zm-258.118-119.674c4.143 0 7.5-3.358 7.5-7.5v-38.691c0-10.445 8.497-18.942 18.941-18.942h212.734c10.445 0 18.942 8.497 18.942 18.942v119.423c0 10.444-8.497 18.942-18.942 18.942h-212.734c-10.444 0-18.941-8.498-18.941-18.942v-45.732c0-4.142-3.357-7.5-7.5-7.5s-7.5 3.358-7.5 7.5v24.273l-27.364-6.589c-4.284-1.036-8.655-1.021-12.823-.018l26.378-111.323c3.92-16.548 17.125-29.602 33.639-33.255l65.401-14.442c13.92 16.021 33.73 25.119 55.078 25.119s41.157-9.098 55.078-25.119l65.397 14.44c16.522 3.655 29.731 16.709 33.652 33.256l26.37 111.323c-4.166-1.002-8.536-1.017-12.818.017l-27.369 6.59v-97.964c0-18.716-15.227-33.942-33.942-33.942h-212.736c-18.716 0-33.941 15.226-33.941 33.942v38.691c0 4.143 3.357 7.501 7.5 7.501zm310.535 84.14-42.436 12.946c-.833-.859-1.746-1.63-2.733-2.287 4.841-5.868 7.752-13.384 7.752-21.567v-6.031l30.887-7.438c7.7-1.917 15.438 4.286 15.438 12.31 0 5.501-3.665 10.464-8.908 12.067zm-442.175-297.696h78.027c4.143 0 7.5-3.358 7.5-7.5s-3.357-7.5-7.5-7.5h-78.027c-4.143 0-7.5 3.358-7.5 7.5s3.357 7.5 7.5 7.5zm85.527 22.5c0-4.142-3.357-7.5-7.5-7.5h-78.027c-4.143 0-7.5 3.358-7.5 7.5s3.357 7.5 7.5 7.5h78.027c4.143 0 7.5-3.358 7.5-7.5zm197.206 13.035c3.627-2 4.946-6.561 2.947-10.188-2-3.627-6.561-4.947-10.189-2.947-2.37 1.307-6.195 2.849-11.043 2.849-.079 0-.159 0-.239-.001-4.75-.05-8.497-1.577-10.804-2.848-3.628-2.001-8.189-.68-10.189 2.947-1.999 3.627-.68 8.189 2.947 10.189 5.588 3.082 11.921 4.713 18.286 4.713 8.031-.001 14.363-2.553 18.284-4.714zm-18.285 231.251c19.891 0 36.073-16.247 36.073-36.218s-16.183-36.218-36.073-36.218-36.073 16.247-36.073 36.218 16.183 36.218 36.073 36.218zm0-57.436c11.62 0 21.073 9.518 21.073 21.218s-9.453 21.218-21.073 21.218-21.073-9.518-21.073-21.218 9.453-21.218 21.073-21.218zm-36.66-253.267c-4.143 0-7.5 3.358-7.5 7.5v14.738c0 4.142 3.357 7.5 7.5 7.5s7.5-3.358 7.5-7.5v-14.738c0-4.143-3.357-7.5-7.5-7.5zm73.321 29.738c4.143 0 7.5-3.358 7.5-7.5v-14.738c0-4.142-3.357-7.5-7.5-7.5s-7.5 3.358-7.5 7.5v14.738c0 4.142 3.358 7.5 7.5 7.5z"/></g></svg>